# xmcd
#
# Track frame offsets: 
#        150
#        16456
#        33632
#        70269
#        99179
#        143736
#
# Disc length: 2394 seconds
#
# Revision: 0
# Processed by: cddbd v1.5.2PL0 Copyright (c) Steve Scherf et al.
# Submitted via: ExactAudioCopy v0.99pb5
#
DISCID=49095806
DTITLE=LEANN RIMES - Life Goes On
DYEAR=2002
DGENRE=Pop
TTITLE0=Life Goes On(Original Mix) 
TTITLE1=Life Goes On(Almighty Mix 7")
TTITLE2=Life Goes On(M*A*S*H Mix)
TTITLE3=Life Goes On(Amato and Sheremet)
TTITLE4=Life Goes On(29 Palms Mix)
TTITLE5=Life Goes On(Video)
EXTD=
EXTT0=
EXTT1=
EXTT2=
EXTT3=
EXTT4=
EXTT5=
PLAYORDER=
